<?xml version="1.0" standalone="no"?>
<!DOCTYPE svg PUBLIC "-//W3C//DTD SVG 20010904//EN"
 "http://www.w3.org/TR/2001/REC-SVG-20010904/DTD/svg10.dtd">
<svg version="1.0" xmlns="http://www.w3.org/2000/svg"
 width="735.000000pt" height="981.000000pt" viewBox="0 0 735.000000 981.000000"
 preserveAspectRatio="xMidYMid meet">

<g transform="translate(0.000000,981.000000) scale(0.100000,-0.100000)"
fill="#000000" stroke="none">
<path d="M1353 9795 c-157 -43 -283 -159 -340 -315 l-21 -55 -88 -11 c-229
-29 -408 -112 -554 -254 -170 -166 -268 -376 -322 -690 -19 -106 -22 -164 -22
-380 0 -323 23 -524 105 -920 54 -260 183 -729 268 -974 20 -56 21 -82 21
-476 0 -415 0 -418 25 -516 100 -384 356 -714 700 -904 213 -118 475 -184 808
-206 l97 -6 0 -1018 c0 -620 4 -1058 10 -1121 28 -283 107 -549 241 -807 199
-387 487 -668 884 -862 369 -181 771 -265 1260 -264 214 0 255 3 385 27 877
159 1444 638 1639 1382 23 87 44 200 63 340 8 65 13 513 17 1619 l6 1529 69
23 c165 56 314 145 431 256 196 186 291 407 302 708 26 676 -337 1049 -1023
1050 -419 0 -748 -183 -908 -506 -141 -287 -141 -715 2 -999 125 -249 370
-446 645 -520 l68 -18 -3 -1516 -3 -1516 -24 -125 c-52 -283 -135 -499 -266
-695 -245 -369 -614 -574 -1125 -626 -194 -19 -595 -17 -729 4 -412 67 -748
233 -1007 499 -237 243 -378 511 -486 928 l-33 125 -3 1053 c-1 578 1 1052 5
1052 54 1 275 25 368 41 711 118 1150 465 1240 978 12 65 15 185 15 551 l0
467 45 104 c67 152 156 391 214 574 238 754 289 1368 149 1805 -58 182 -143
323 -265 441 -137 134 -303 225 -500 275 -52 13 -98 26 -102 29 -5 2 -11 27
-15 54 -4 27 -24 85 -46 129 -153 305 -547 364 -779 116 -70 -75 -105 -142
-128 -247 -47 -216 66 -441 271 -543 80 -39 80 -39 200 -39 144 0 199 17 302
96 64 48 66 49 137 49 277 0 490 -191 572 -513 106 -419 11 -1035 -290 -1882
-31 -88 -81 -221 -111 -295 l-54 -134 0 -412 c0 -443 -3 -479 -60 -608 -78
-181 -267 -361 -484 -461 -246 -114 -503 -159 -916 -160 -335 0 -489 22 -727
106 -332 117 -564 339 -652 623 -20 65 -21 89 -21 477 l0 408 -79 238 c-161
484 -265 920 -316 1323 -23 180 -31 483 -15 621 44 405 210 646 496 719 132
34 145 31 223 -50 51 -53 86 -78 147 -107 78 -38 80 -38 204 -38 125 0 125 0
205 39 236 115 342 390 245 637 -88 223 -341 354 -567 294z"/>
</g>
</svg>
