<?xml version="1.0" standalone="no"?>
<!DOCTYPE svg PUBLIC "-//W3C//DTD SVG 20010904//EN"
 "http://www.w3.org/TR/2001/REC-SVG-20010904/DTD/svg10.dtd">
<svg version="1.0" xmlns="http://www.w3.org/2000/svg"
 width="666.000000pt" height="375.000000pt" viewBox="0 0 666.000000 375.000000"
 preserveAspectRatio="xMidYMid meet">

<g transform="translate(0.000000,375.000000) scale(0.100000,-0.100000)"
fill="#000000" stroke="none">
<path d="M6033 3390 c4 -16 2 -32 -4 -36 -6 -4 -7 -10 0 -17 11 -15 26 -93 46
-252 41 -315 56 -540 59 -848 l1 -168 -52 -44 c-49 -43 -52 -44 -56 -22 -3 14
-4 11 -4 -9 1 -20 -9 -44 -30 -70 -44 -56 -52 -96 -63 -314 -5 -107 -13 -246
-16 -307 l-7 -113 -31 0 c-17 0 -141 7 -276 15 -808 49 -912 54 -931 44 -15
-8 -26 -5 -52 15 -36 27 -135 76 -155 76 -7 0 -10 -5 -6 -11 5 -8 0 -10 -17
-6 -99 24 -161 29 -291 25 -78 -3 -152 -9 -162 -13 -13 -6 -17 -5 -12 3 14 23
-91 -30 -136 -68 -118 -101 -176 -255 -180 -479 -2 -55 -6 -101 -10 -101 -5 0
-8 5 -8 11 0 5 -4 7 -10 4 -5 -3 -10 -1 -10 4 0 6 -5 11 -11 11 -5 0 -7 -4 -4
-10 3 -5 -1 -10 -10 -10 -9 0 -13 4 -10 10 8 13 -17 17 -215 35 -96 9 -229 22
-295 30 -66 8 -176 19 -245 25 -69 6 -161 15 -205 20 -44 6 -170 19 -280 30
-110 11 -338 36 -507 55 -169 19 -326 35 -350 35 -62 0 -85 9 -92 33 -3 12 -3
23 -1 26 3 2 98 -5 213 -18 372 -39 486 -52 522 -56 19 -2 89 -9 155 -14 217
-20 446 -42 735 -71 373 -39 491 -46 517 -32 15 9 24 31 37 94 26 133 25 135
-36 142 -113 13 -133 15 -246 20 l-117 5 170 -19 c193 -21 123 -19 -200 5
-121 10 -223 20 -227 24 -4 3 19 5 50 4 l57 -1 -55 8 c-30 4 -75 8 -100 8 -45
-1 -45 -1 -10 -8 31 -7 29 -7 -20 -8 -38 0 -49 2 -35 8 31 12 8 16 -160 30
-82 6 -154 16 -159 20 -5 5 -28 7 -50 4 -23 -3 -120 2 -216 11 -96 9 -188 15
-205 14 -16 -1 -37 1 -45 4 -22 9 -380 38 -491 40 -53 1 -95 5 -93 8 5 8 -75
19 -139 19 l-50 0 6 43 c3 23 11 88 18 145 l13 102 50 2 51 2 -47 3 c-44 4
-48 6 -49 31 -2 31 -33 -152 -44 -251 l-7 -67 -31 0 c-18 0 -90 5 -160 11 -89
9 -131 9 -138 2 -8 -8 -5 -36 10 -94 29 -116 41 -124 183 -134 76 -5 108 -10
105 -18 -2 -7 -19 -13 -38 -14 -34 -2 -279 23 -285 30 -2 2 -17 70 -34 153
-37 178 -80 312 -121 376 -33 52 -68 86 -56 56 4 -12 -8 -7 -41 15 -25 18 -52
37 -59 44 -30 27 -272 30 -322 4 -27 -15 -39 -7 -21 14 11 13 8 15 -17 15 -43
0 -108 -63 -122 -118 -7 -24 -16 -103 -21 -175 -7 -104 -6 -147 6 -202 20 -95
50 -155 85 -168 21 -8 30 -21 39 -55 17 -69 57 -140 106 -188 37 -36 62 -48
141 -74 117 -37 179 -38 394 -9 276 38 482 22 1004 -76 171 -32 539 -88 795
-120 572 -72 1067 -172 1213 -246 20 -11 78 -47 129 -80 50 -33 98 -57 105
-55 8 4 11 1 8 -5 -4 -6 -1 -9 6 -8 8 1 30 -5 49 -14 19 -8 53 -18 75 -22 22
-4 44 -10 49 -13 5 -3 72 -5 150 -5 131 0 148 3 241 32 186 59 298 76 675 101
274 18 371 50 479 157 35 35 62 66 60 68 -6 5 -293 41 -506 62 -98 10 -160 19
-138 21 22 2 90 -1 150 -7 61 -6 151 -14 200 -17 50 -4 93 -8 96 -10 4 -2 66
-5 138 -7 72 -3 136 -9 143 -15 9 -7 20 -6 38 3 15 9 57 14 108 15 46 0 92 5
102 10 11 6 50 48 87 94 37 46 101 122 141 170 74 87 74 87 68 134 -3 26 -7
54 -7 62 -1 13 26 211 37 268 3 14 12 22 24 22 10 0 22 5 25 10 11 18 -6 90
-21 90 -8 0 -26 14 -41 31 -25 28 -28 37 -25 90 2 32 0 59 -5 59 -4 0 -7 75
-5 167 2 128 7 173 19 197 14 27 15 68 9 341 -4 170 -12 328 -17 350 -6 22
-21 101 -34 175 -27 154 -60 315 -71 345 -4 11 -18 33 -31 48 -13 16 -26 41
-29 55 -18 77 -90 157 -178 198 -69 32 -80 31 -73 -6z m218 -1320 c5 0 9 -4 9
-10 0 -16 -37 -11 -44 6 -5 12 -2 15 10 10 8 -3 20 -6 25 -6z m159 -240 c0
-33 -2 -60 -4 -60 -2 0 -11 -3 -20 -6 -13 -5 -16 2 -16 41 0 25 -5 55 -10 66
-10 17 -7 19 20 19 l30 0 0 -60z m-100 35 c-19 -22 -27 -214 -10 -245 l12 -22
22 21 c12 12 26 46 33 79 11 53 12 54 7 10 -3 -31 -1 -48 5 -48 21 0 10 -25
-24 -60 -19 -19 -35 -39 -35 -45 0 -5 -38 -28 -83 -50 -45 -22 -85 -44 -89
-50 -4 -5 -8 -32 -9 -60 -1 -27 -3 -42 -6 -32 -6 21 -19 22 -27 2 -3 -10 -19
-15 -46 -15 l-40 0 0 73 c0 39 5 126 10 192 9 115 11 121 40 148 35 31 66 37
51 10 -6 -10 -13 -31 -16 -47 -4 -21 -10 -27 -25 -23 -31 8 -45 -75 -14 -87
29 -11 34 -6 34 39 0 25 4 45 9 45 5 0 12 11 15 25 3 13 11 37 18 52 14 35 15
39 17 62 1 19 43 31 135 39 25 2 27 1 16 -13z m60 -414 c0 -50 -32 -86 -77
-89 -32 -2 -33 -1 -33 36 0 33 5 41 42 65 57 37 68 35 68 -12z m-5991 -15 c-2
-2 -20 -6 -39 -10 -25 -4 -31 -3 -20 4 14 9 69 15 59 6z m58 -2 c-3 -3 -12 -4
-19 -1 -8 3 -5 6 6 6 11 1 17 -2 13 -5z m111 -41 c43 -26 61 -48 48 -61 -4 -3
-21 9 -38 27 -17 18 -50 42 -72 53 -33 16 -35 18 -12 13 16 -3 49 -18 74 -32z
m-103 -107 c31 -13 95 -86 95 -109 0 -6 -3 -7 -7 -4 -3 4 -16 -2 -28 -13 -20
-19 -21 -24 -10 -66 11 -45 35 -71 55 -59 6 4 10 -5 10 -20 0 -25 -2 -26 -37
-19 -35 7 -37 6 -24 -9 7 -10 22 -17 32 -17 18 0 18 -2 5 -28 -8 -15 -25 -36
-37 -47 l-24 -20 23 26 c19 21 34 64 16 46 -3 -3 -17 -1 -31 4 -21 8 -28 6
-41 -12 -10 -15 -17 -18 -22 -9 -6 9 -10 6 -15 -9 -7 -24 -16 -26 -32 -10 -13
13 -33 4 -33 -17 0 -8 -4 -14 -8 -14 -12 0 -47 40 -62 70 -12 24 -11 24 19 -4
50 -47 48 -21 -3 38 -29 34 -41 56 -34 59 10 3 10 7 1 19 -7 8 -10 18 -6 21 3
4 1 7 -5 7 -7 0 -12 5 -12 10 0 6 7 10 15 10 21 0 38 46 36 97 -1 35 3 45 26
61 51 36 85 40 138 18z m5851 -47 c9 -15 -16 -155 -32 -177 -12 -15 -13 -12
-14 24 0 41 -1 42 -40 48 -52 8 -50 39 3 59 9 3 22 18 29 32 12 26 42 34 54
14z m-5739 -141 c-3 -7 -5 -2 -5 12 0 14 2 19 5 13 2 -7 2 -19 0 -25z m2206
-5 c-13 -2 -33 -2 -45 0 -13 2 -3 4 22 4 25 0 35 -2 23 -4z m800 -70 c-7 -2
-21 -2 -30 0 -10 3 -4 5 12 5 17 0 24 -2 18 -5z m758 -3 c54 -10 162 -51 210
-80 35 -21 129 -103 129 -113 0 -5 -5 -5 -11 -1 -8 4 -9 -1 -4 -16 5 -15 4
-20 -4 -16 -6 4 -11 2 -11 -4 0 -6 -5 -8 -10 -5 -8 5 -7 12 1 22 11 12 10 14
-2 11 -8 -1 -32 14 -53 34 -21 20 -63 54 -94 75 -32 21 -59 40 -62 43 -6 6
-20 10 -105 28 -126 27 -255 -9 -361 -100 l-49 -42 44 47 c97 102 236 144 382
117z m-2944 -27 c26 -34 0 -40 -104 -28 -54 7 -105 10 -113 7 -9 -3 -4 6 10
22 25 28 26 28 110 22 61 -5 89 -12 97 -23z m-434 0 c-7 -2 -21 -2 -30 0 -10
3 -4 5 12 5 17 0 24 -2 18 -5z m3395 -194 c110 -54 174 -160 176 -289 2 -127
-81 -236 -200 -260 -56 -12 -90 -8 -79 9 3 5 1 12 -5 16 -5 3 -10 -1 -10 -9 0
-22 -18 -20 -77 10 -236 117 -225 471 17 545 56 17 116 10 178 -22z m982 -9
c0 -5 -4 -10 -10 -10 -5 0 -10 5 -10 10 0 6 5 10 10 10 6 0 10 -4 10 -10z
m-1349 -587 c13 -16 12 -17 -3 -4 -17 13 -22 21 -14 21 2 0 10 -8 17 -17z"/>
<path d="M6208 1794 c-4 -5 -9 -26 -13 -47 -8 -42 9 -52 26 -14 10 23 -2 80
-13 61z"/>
<path d="M6191 1673 c-1 -34 13 -52 23 -28 3 8 1 15 -4 15 -5 0 -11 10 -13 23
-3 16 -5 14 -6 -10z"/>
<path d="M358 1284 c-14 -13 6 -44 28 -44 12 0 26 -5 29 -11 5 -7 14 -4 26 7
27 24 24 32 -18 43 -43 12 -57 13 -65 5z"/>
<path d="M480 1215 c-8 -9 -8 -15 -2 -15 12 0 26 19 19 26 -2 2 -10 -2 -17
-11z"/>
<path d="M319 1177 c-29 -25 -55 -107 -35 -107 7 0 18 18 25 40 13 45 43 70
83 70 22 0 31 -7 43 -36 8 -20 15 -53 15 -72 0 -33 -1 -35 -14 -16 -8 10 -18
16 -21 12 -4 -4 -15 2 -25 14 -12 16 -22 19 -36 13 -10 -5 -22 -9 -26 -9 -13
-2 -40 -47 -33 -54 4 -4 10 -2 12 5 2 7 11 9 19 6 8 -3 14 0 14 7 0 10 3 10
15 0 8 -7 22 -10 30 -6 9 3 15 0 15 -9 0 -8 9 -15 20 -15 11 0 20 -3 20 -6 0
-11 -29 -34 -44 -34 -9 0 -16 -4 -16 -10 0 -17 35 -11 58 10 28 27 37 81 22
136 -22 78 -88 107 -141 61z"/>
<path d="M334 1139 c-3 -6 -1 -16 5 -22 9 -9 14 -8 21 3 9 15 4 30 -10 30 -5
0 -12 -5 -16 -11z"/>
<path d="M397 1134 c-14 -14 -7 -35 11 -32 9 2 17 10 17 17 0 16 -18 25 -28
15z"/>
<path d="M350 1011 c0 -15 6 -21 21 -21 25 0 22 33 -4 38 -12 2 -17 -3 -17
-17z"/>
<path d="M4138 793 c-20 -5 -22 -16 -8 -43 8 -15 15 -17 37 -10 16 5 46 12 68
17 26 5 41 14 43 26 3 15 -5 17 -60 16 -35 -1 -71 -3 -80 -6z"/>
<path d="M4335 759 c-4 -6 -5 -13 -2 -16 7 -7 27 6 27 18 0 12 -17 12 -25 -2z"/>
<path d="M4060 725 c7 -9 15 -13 17 -11 7 7 -7 26 -19 26 -6 0 -6 -6 2 -15z"/>
<path d="M4391 694 c-10 -22 -9 -33 7 -68 11 -22 22 -49 25 -58 4 -12 17 -18
38 -18 31 0 31 1 26 37 -7 38 -54 124 -73 130 -6 2 -16 -8 -23 -23z"/>
<path d="M4007 666 c-4 -10 -7 -49 -7 -87 0 -51 3 -69 14 -69 8 0 15 17 19 48
3 26 8 54 12 63 3 9 -3 26 -13 39 -17 21 -19 21 -25 6z"/>
<path d="M4130 650 c20 -13 33 -13 25 0 -3 6 -14 10 -23 10 -15 0 -15 -2 -2
-10z"/>
<path d="M4301 644 c0 -11 3 -14 6 -6 3 7 2 16 -1 19 -3 4 -6 -2 -5 -13z"/>
<path d="M4150 615 c-17 -21 -5 -45 22 -45 19 0 20 2 8 10 -10 6 -11 10 -2 10
17 0 15 27 -2 33 -8 3 -20 -1 -26 -8z"/>
<path d="M4236 615 c-9 -24 1 -35 30 -35 21 0 25 4 22 23 -4 27 -42 36 -52 12z"/>
<path d="M4186 545 c-10 -28 12 -57 42 -53 23 2 27 8 27 33 0 26 -4 30 -31 33
-22 2 -33 -2 -38 -13z m49 -25 c-3 -5 -13 -6 -21 -3 -12 4 -13 8 -3 14 15 9
32 2 24 -11z"/>
<path d="M4350 530 c0 -11 4 -20 9 -20 5 0 7 9 4 20 -3 11 -7 20 -9 20 -2 0
-4 -9 -4 -20z"/>
<path d="M4280 525 c-18 -21 -5 -45 25 -45 14 0 28 7 31 15 7 17 -12 45 -31
45 -7 0 -18 -7 -25 -15z"/>
<path d="M4134 515 c-9 -23 3 -45 26 -45 23 0 27 29 8 48 -16 16 -27 15 -34
-3z"/>
<path d="M4341 468 c-10 -28 -37 -53 -71 -68 -24 -10 -24 -10 5 -5 32 6 85 56
85 80 0 22 -9 18 -19 -7z"/>
<path d="M4450 476 c0 -10 9 -16 25 -16 14 0 25 5 25 10 0 6 -4 10 -9 10 -5 0
-16 3 -25 6 -11 4 -16 1 -16 -10z"/>
<path d="M4115 460 c3 -5 8 -10 11 -10 2 0 4 5 4 10 0 6 -5 10 -11 10 -5 0 -7
-4 -4 -10z"/>
<path d="M4214 455 c-8 -21 4 -35 32 -35 25 0 28 7 18 34 -8 20 -43 21 -50 1z"/>
<path d="M4010 435 c7 -8 16 -12 21 -9 13 8 1 24 -18 24 -13 0 -13 -3 -3 -15z"/>
<path d="M4371 375 c-18 -19 -37 -35 -42 -35 -6 0 -7 -15 -3 -35 5 -31 4 -35
-14 -35 -12 0 -25 7 -30 16 -11 20 -28 12 -35 -17 -5 -18 -2 -20 16 -15 12 3
34 6 48 6 19 0 48 20 98 66 39 36 71 70 71 75 0 5 -17 9 -38 9 -30 0 -44 -7
-71 -35z"/>
<path d="M4061 381 l-24 -7 24 -15 c28 -19 126 -69 134 -69 3 0 5 7 5 15 0 8
-17 23 -38 34 -21 11 -44 27 -51 35 -15 17 -14 17 -50 7z"/>
<path d="M5658 2953 c7 -3 16 -2 19 1 4 3 -2 6 -13 5 -11 0 -14 -3 -6 -6z"/>
<path d="M4208 2913 c7 -3 16 -2 19 1 4 3 -2 6 -13 5 -11 0 -14 -3 -6 -6z"/>
<path d="M3893 2903 c20 -2 54 -2 75 0 20 2 3 4 -38 4 -41 0 -58 -2 -37 -4z"/>
<path d="M3628 2893 c17 -2 47 -2 65 0 17 2 3 4 -33 4 -36 0 -50 -2 -32 -4z"/>
<path d="M3378 2883 c6 -2 18 -2 25 0 6 3 1 5 -13 5 -14 0 -19 -2 -12 -5z"/>
<path d="M5423 2868 c-779 -19 -1921 -51 -2893 -83 -250 -8 -608 -19 -795 -25
-187 -6 -345 -13 -351 -15 -20 -6 -51 -364 -51 -595 l0 -145 8 190 c12 254 37
517 50 530 12 10 12 4 -11 -250 -6 -60 -13 -192 -17 -292 l-6 -182 24 -5 c21
-5 293 -11 1254 -31 132 -3 299 -7 370 -10 72 -3 249 -7 395 -10 706 -15 1208
-27 1660 -40 653 -20 756 -20 764 0 9 24 29 889 22 929 -8 40 -21 47 -88 43
-25 -1 -176 -5 -335 -9z"/>
<path d="M1241 2809 c-52 -5 -99 -11 -105 -14 -6 -3 18 -3 54 0 36 3 88 6 117
7 29 0 50 5 47 10 -3 4 -8 7 -12 7 -4 -1 -49 -6 -101 -10z"/>
<path d="M1335 2725 c-4 -36 -5 -68 -2 -71 3 -3 8 24 12 61 4 36 5 68 2 71 -3
3 -8 -24 -12 -61z"/>
<path d="M1069 2730 c-76 -10 -174 -58 -227 -111 -50 -50 -224 -262 -261 -318
-25 -36 -25 -36 -31 -11 -8 33 -60 40 -89 11 -10 -10 -22 -17 -24 -14 -8 7
-34 -37 -41 -69 -6 -25 -4 -28 19 -28 25 0 25 -1 25 -76 0 -65 -2 -75 -16 -72
-25 5 -42 36 -26 47 10 6 11 19 6 47 l-8 39 -7 -40 c-12 -60 -10 -121 2 -149
13 -27 72 -56 115 -56 17 0 28 -7 31 -20 5 -18 14 -20 99 -20 l93 0 7 35 c6
33 8 35 48 35 61 0 174 18 228 36 59 19 109 73 136 146 22 59 112 489 112 536
0 59 -44 71 -191 52z"/>
<path d="M1322 2560 c0 -19 2 -27 5 -17 2 9 2 25 0 35 -3 9 -5 1 -5 -18z"/>
<path d="M1313 2450 c0 -25 2 -35 4 -22 2 12 2 32 0 45 -2 12 -4 2 -4 -23z"/>
<path d="M1303 2315 c0 -22 2 -30 4 -17 2 12 2 30 0 40 -3 9 -5 -1 -4 -23z"/>
<path d="M1293 2200 c0 -25 2 -35 4 -22 2 12 2 32 0 45 -2 12 -4 2 -4 -23z"/>
<path d="M1283 2070 c0 -30 2 -43 4 -27 2 15 2 39 0 55 -2 15 -4 2 -4 -28z"/>
<path d="M1120 1960 c-12 -7 -15 -31 -15 -104 0 -103 7 -118 56 -130 43 -10
54 14 54 119 0 63 -4 97 -14 108 -15 19 -57 22 -81 7z"/>
<path d="M1590 1896 c0 -8 5 -18 10 -21 6 -3 10 -34 10 -67 0 -74 8 -74 11 0
2 29 8 57 15 63 7 6 10 17 7 25 -7 19 -53 18 -53 0z"/>
<path d="M1661 1828 c1 -62 3 -74 9 -48 l7 35 8 -33 c13 -55 20 -44 20 31 0
76 -7 97 -31 97 -11 0 -14 -17 -13 -82z m25 15 c-11 -11 -19 6 -11 24 8 17 8
17 12 0 3 -10 2 -21 -1 -24z"/>
<path d="M1736 1885 c-3 -8 -8 -46 -10 -83 -3 -37 -3 -59 0 -49 3 9 12 17 19
17 7 0 16 -8 18 -17 7 -28 8 49 1 101 -7 47 -17 58 -28 31z m11 -72 c-3 -10
-5 -4 -5 12 0 17 2 24 5 18 2 -7 2 -21 0 -30z"/>
<path d="M1792 1818 c1 -46 3 -66 5 -45 5 40 23 42 23 2 0 -13 5 -27 10 -30 6
-4 9 24 8 77 -1 69 -2 75 -8 38 l-6 -45 -8 38 c-15 67 -26 50 -24 -35z"/>
<path d="M1866 1884 c-11 -27 -6 -61 9 -74 8 -7 15 -22 15 -34 -1 -21 -1 -21
-15 -2 -14 19 -15 19 -15 -6 0 -32 16 -44 35 -28 21 18 18 63 -6 94 -12 15
-18 30 -15 34 4 3 11 0 15 -7 11 -17 23 2 15 23 -8 21 -30 21 -38 0z"/>
<path d="M1927 1893 c-11 -11 -8 -163 3 -163 6 0 10 13 10 29 0 16 6 31 15 35
21 8 21 92 -1 100 -19 7 -19 7 -27 -1z m33 -47 c0 -8 -4 -18 -10 -21 -5 -3
-10 3 -10 14 0 12 5 21 10 21 6 0 10 -6 10 -14z"/>
<path d="M2003 1888 c-16 -20 -23 -79 -15 -118 10 -46 42 -49 54 -5 18 62 -13
156 -39 123z m25 -84 c-2 -22 -7 -39 -13 -39 -12 0 -19 60 -10 83 10 28 27 -3
23 -44z"/>
<path d="M2060 1810 c0 -47 4 -80 10 -80 6 0 10 15 11 33 l1 32 10 -32 c6 -18
15 -33 20 -33 5 0 6 10 2 22 -4 13 -6 49 -5 80 2 56 1 58 -24 58 -25 0 -25 -1
-25 -80z m40 36 c0 -8 -4 -18 -10 -21 -5 -3 -10 3 -10 14 0 12 5 21 10 21 6 0
10 -6 10 -14z"/>
<path d="M2130 1870 c0 -11 4 -20 10 -20 5 0 11 -30 13 -67 l3 -68 2 68 c1 37
7 67 12 67 6 0 10 9 10 20 0 15 -7 20 -25 20 -18 0 -25 -5 -25 -20z"/>
<path d="M2336 1865 c-11 -31 -6 -62 14 -80 19 -17 27 -45 14 -45 -4 0 -13 8
-20 18 -13 16 -13 16 -14 -3 0 -29 16 -49 34 -42 22 9 23 95 1 103 -8 4 -15
13 -15 21 0 13 3 13 16 2 14 -11 15 -10 12 11 -4 29 -33 39 -42 15z"/>
<path d="M2412 1868 c-19 -19 -15 -133 4 -153 18 -18 28 -12 39 23 7 23 -9 32
-18 10 -8 -19 -27 11 -27 42 0 35 17 60 29 41 12 -19 20 0 10 27 -9 25 -19 28
-37 10z"/>
<path d="M2479 1853 c-13 -34 -7 -129 9 -145 9 -9 16 -8 30 5 12 13 17 34 17
76 -1 82 -34 120 -56 64z m36 -63 c0 -26 -5 -45 -12 -47 -9 -3 -13 10 -13 47
0 37 4 50 13 48 7 -3 12 -22 12 -48z"/>
<path d="M2552 1788 c3 -77 5 -83 26 -86 17 -3 22 2 22 17 0 12 -6 21 -15 21
-12 0 -15 14 -15 65 0 38 -4 65 -10 65 -7 0 -10 -30 -8 -82z"/>
<path d="M2637 1863 c-3 -5 -7 -30 -11 -58 -4 -27 -9 -62 -12 -77 -3 -17 -1
-28 5 -28 6 0 11 7 11 15 0 8 7 15 15 15 8 0 15 -7 15 -15 0 -8 5 -15 11 -15
7 0 9 12 5 33 -3 17 -8 56 -12 85 -6 47 -16 64 -27 45z m10 -90 c-3 -10 -5 -2
-5 17 0 19 2 27 5 18 2 -10 2 -26 0 -35z"/>
<path d="M2690 1785 c0 -50 4 -85 10 -85 6 0 10 35 10 85 0 50 -4 85 -10 85
-6 0 -10 -35 -10 -85z"/>
<path d="M2730 1786 c0 -51 4 -86 10 -86 6 0 10 14 10 32 0 37 16 27 22 -12 1
-14 8 -23 13 -20 6 3 8 10 6 15 -2 6 -4 42 -5 80 -1 69 -2 70 -28 73 l-28 3 0
-85z m40 34 c0 -11 -4 -20 -10 -20 -5 0 -10 9 -10 20 0 11 5 20 10 20 6 0 10
-9 10 -20z"/>
<path d="M2810 1780 c0 -88 1 -90 23 -90 13 0 26 3 30 6 9 10 -4 34 -19 34 -8
0 -14 9 -14 20 0 11 7 20 15 20 8 0 15 7 15 15 0 8 -7 15 -15 15 -8 0 -15 7
-15 15 0 8 7 15 15 15 8 0 15 9 15 20 0 15 -7 20 -25 20 -25 0 -25 -1 -25 -90z"/>
<path d="M4737 1803 c-4 -3 -7 -22 -7 -42 0 -81 -17 -96 -70 -64 -24 14 -34
15 -55 5 -36 -17 -75 -15 -75 2 0 18 -13 26 -56 36 -26 6 -34 5 -34 -6 0 -8 9
-14 19 -14 11 0 23 -4 26 -10 4 -6 -10 -10 -35 -10 -29 0 -40 -4 -38 -12 3 -9
34 -15 89 -18 46 -3 94 -11 107 -18 16 -9 27 -10 41 -2 11 5 40 10 65 10 l46
0 0 59 c0 33 3 66 6 75 6 16 -16 23 -29 9z m-97 -123 c0 -5 -7 -10 -16 -10 -8
0 -12 5 -9 10 3 6 10 10 16 10 5 0 9 -4 9 -10z"/>
<path d="M4813 1803 c-19 -7 -18 -153 1 -153 16 0 26 43 26 111 0 48 -3 52
-27 42z"/>
<path d="M5107 1793 c-4 -3 -7 -21 -7 -38 0 -18 -3 -53 -6 -79 -6 -40 -10 -46
-30 -46 -19 0 -24 5 -24 26 0 20 -4 25 -16 20 -9 -3 -18 -6 -20 -6 -2 0 -4
-10 -4 -21 0 -48 82 -67 121 -28 20 20 27 20 193 13 l173 -7 7 78 c4 42 4 80
1 83 -10 11 -40 -14 -41 -34 0 -10 -1 -36 -2 -56 -2 -31 -6 -38 -22 -38 -13 0
-20 7 -20 20 0 13 -7 20 -20 20 -13 0 -20 -7 -20 -20 0 -16 -7 -20 -34 -20
-33 0 -35 2 -38 38 -2 20 -6 36 -10 35 -5 -2 -26 -3 -49 -3 -36 0 -40 -2 -37
-22 2 -15 11 -24 26 -26 12 -2 22 -8 22 -14 0 -9 -94 -2 -112 9 -4 2 -5 31 -1
63 5 49 3 60 -9 60 -8 0 -18 -3 -21 -7z m148 -83 c3 -5 -1 -10 -10 -10 -9 0
-13 5 -10 10 3 6 8 10 10 10 2 0 7 -4 10 -10z"/>
<path d="M5558 1779 c-15 -8 -18 -24 -18 -79 0 -62 2 -70 19 -70 17 0 20 9 23
73 4 80 1 90 -24 76z"/>
<path d="M5200 1770 c0 -5 9 -10 20 -10 11 0 20 5 20 10 0 6 -9 10 -20 10 -11
0 -20 -4 -20 -10z"/>
<path d="M5260 1772 c0 -14 11 -21 26 -15 8 3 11 9 8 14 -7 11 -34 12 -34 1z"/>
<path d="M4060 1763 c-35 -7 -50 -21 -50 -48 0 -24 -16 -35 -37 -28 -7 3 -13
13 -13 24 0 23 -28 26 -37 4 -9 -24 26 -55 62 -55 37 0 51 13 57 50 3 25 23
31 23 8 0 -22 17 -26 120 -29 l100 -3 3 32 c4 35 -16 45 -25 12 -6 -23 -23
-27 -23 -5 0 21 -26 19 -35 -2 -6 -17 -7 -17 -17 0 -9 17 -11 17 -27 3 -24
-22 -61 -10 -61 20 0 13 -3 23 -7 23 -5 -1 -19 -4 -33 -6z"/>
<path d="M5373 1748 c2 -7 10 -13 17 -13 7 0 15 6 18 13 2 7 -5 12 -18 12 -13
0 -20 -5 -17 -12z"/>
<path d="M626 1710 c32 -53 79 -93 103 -85 26 8 36 45 24 82 -9 27 -13 28 -77
31 l-68 3 18 -31z"/>
<path d="M4344 1695 c-3 -19 -10 -35 -16 -35 -5 0 -6 -4 -3 -10 3 -5 17 -10
31 -10 22 0 24 4 24 45 0 56 -26 63 -36 10z"/>
<path d="M1250 1679 c0 -17 4 -28 10 -24 6 3 10 17 10 31 0 13 -4 24 -10 24
-5 0 -10 -14 -10 -31z"/>
<path d="M3942 1639 c2 -6 8 -10 13 -10 5 0 11 4 13 10 2 6 -4 11 -13 11 -9 0
-15 -5 -13 -11z"/>
<path d="M3996 1643 c-11 -11 -6 -23 9 -23 8 0 15 4 15 9 0 13 -16 22 -24 14z"/>
<path d="M1342 1413 c-2 -85 -5 -104 -19 -112 -16 -9 -16 -10 4 -11 12 0 24 3
26 8 2 4 0 54 -3 112 l-7 105 -1 -102z"/>
<path d="M1268 1303 c6 -2 18 -2 25 0 6 3 1 5 -13 5 -14 0 -19 -2 -12 -5z"/>
<path d="M1624 1288 c4 -17 2 -28 -4 -28 -17 0 -11 -14 11 -28 21 -13 21 -13
15 25 -4 21 -12 43 -18 48 -7 7 -9 2 -4 -17z"/>
<path d="M3088 1073 c18 -2 45 -2 60 0 15 2 0 4 -33 4 -33 0 -45 -2 -27 -4z"/>
</g>
</svg>
